<?xml version="1.0" encoding="UTF-8" standalone="no"?>
<!-- Created with Inkscape (http://www.inkscape.org/) -->

<svg
   xmlns:dc="http://purl.org/dc/elements/1.1/"
   xmlns:cc="http://creativecommons.org/ns#"
   xmlns:rdf="http://www.w3.org/1999/02/22-rdf-syntax-ns#"
   xmlns:svg="http://www.w3.org/2000/svg"
   xmlns="http://www.w3.org/2000/svg"
   xmlns:sodipodi="http://sodipodi.sourceforge.net/DTD/sodipodi-0.dtd"
   xmlns:inkscape="http://www.inkscape.org/namespaces/inkscape"
   width="744.09448819"
   height="1052.3622047"
   id="svg2"
   version="1.1"
   inkscape:version="0.48.4 r9939"
   sodipodi:docname="circuits.svg">
  <defs
     id="defs4" />
  <sodipodi:namedview
     id="base"
     pagecolor="#ffffff"
     bordercolor="#666666"
     borderopacity="1.0"
     inkscape:pageopacity="0.0"
     inkscape:pageshadow="2"
     inkscape:zoom="1.4"
     inkscape:cx="376.13116"
     inkscape:cy="763.74893"
     inkscape:document-units="px"
     inkscape:current-layer="layer1"
     showgrid="false"
     inkscape:window-width="1920"
     inkscape:window-height="1007"
     inkscape:window-x="-6"
     inkscape:window-y="-6"
     inkscape:window-maximized="1"
     inkscape:snap-grids="false"
     inkscape:object-paths="true"
     inkscape:snap-intersection-paths="true">
    <inkscape:grid
       type="xygrid"
       id="grid3761" />
  </sodipodi:namedview>
  <metadata
     id="metadata7">
    <rdf:RDF>
      <cc:Work
         rdf:about="">
        <dc:format>image/svg+xml</dc:format>
        <dc:type
           rdf:resource="http://purl.org/dc/dcmitype/StillImage" />
        <dc:title></dc:title>
      </cc:Work>
    </rdf:RDF>
  </metadata>
  <g
     inkscape:label="Layer 1"
     inkscape:groupmode="layer"
     id="layer1">
    <path
       d="M 0,0 0,1052.3622 M 20,0 20,1052.3622 M 40,0 40,1052.3622 M 60,0 60,1052.3622 M 80,0 80,1052.3622 M 100,0 100,1052.3622 M 120,0 120,1052.3622 M 140,0 140,1052.3622 M 160,0 160,1052.3622 M 180,0 180,1052.3622 M 200,0 200,1052.3622 M 220,0 220,1052.3622 M 240,0 240,1052.3622 M 260,0 260,1052.3622 M 280,0 280,1052.3622 M 300,0 300,1052.3622 M 320,0 320,1052.3622 M 340,0 340,1052.3622 M 360,0 360,1052.3622 M 380,0 380,1052.3622 M 400,0 400,1052.3622 M 420,0 420,1052.3622 M 440,0 440,1052.3622 M 460,0 460,1052.3622 M 480,0 480,1052.3622 M 500,0 500,1052.3622 M 520,0 520,1052.3622 M 540,0 540,1052.3622 M 560,0 560,1052.3622 M 580,0 580,1052.3622 M 600,0 600,1052.3622 M 620,0 620,1052.3622 M 640,0 640,1052.3622 M 660,0 660,1052.3622 M 680,0 680,1052.3622 M 700,0 700,1052.3622 M 720,0 720,1052.3622 M 740,0 740,1052.3622 M 0,0 744.09448,0 M 0,20 744.09448,20 M 0,40 744.09448,40 M 0,60 744.09448,60 M 0,80 744.09448,80 M 0,100 744.09448,100 M 0,120 744.09448,120 M 0,140 744.09448,140 M 0,160 744.09448,160 M 0,180 744.09448,180 M 0,200 744.09448,200 M 0,220 744.09448,220 M 0,240 744.09448,240 M 0,260 744.09448,260 M 0,280 744.09448,280 M 0,300 744.09448,300 M 0,320 744.09448,320 M 0,340 744.09448,340 M 0,360 744.09448,360 M 0,380 744.09448,380 M 0,400 744.09448,400 M 0,420 744.09448,420 M 0,440 744.09448,440 M 0,460 744.09448,460 M 0,480 744.09448,480 M 0,500 744.09448,500 M 0,520 744.09448,520 M 0,540 744.09448,540 M 0,560 744.09448,560 M 0,580 744.09448,580 M 0,600 744.09448,600 M 0,620 744.09448,620 M 0,640 744.09448,640 M 0,660 744.09448,660 M 0,680 744.09448,680 M 0,700 744.09448,700 M 0,720 744.09448,720 M 0,740 744.09448,740 M 0,760 744.09448,760 M 0,780 744.09448,780 M 0,800 744.09448,800 M 0,820 744.09448,820 M 0,840 744.09448,840 M 0,860 744.09448,860 M 0,880 744.09448,880 M 0,900 744.09448,900 M 0,920 744.09448,920 M 0,940 744.09448,940 M 0,960 744.09448,960 M 0,980 744.09448,980 M 0,1000 l 744.09448,0 M 0,1020 l 744.09448,0 M 0,1040 l 744.09448,0"
       style="fill:none;fill-opacity:0.75000000000000000;fill-rule:evenodd;stroke:#b3b3b3;stroke-linecap:butt;stroke-linejoin:miter;stroke-opacity:1;stroke-width:0.5;stroke-miterlimit:4;stroke-dasharray:none"
       id="path2989" />
    <path
       style="fill:none;stroke:#000000;stroke-width:1px;stroke-linecap:butt;stroke-linejoin:miter;stroke-opacity:1"
       d="M 260.61936,179.59038 320,180 l 0,20"
       id="path3763"
       inkscape:connector-curvature="0" />
    <path
       style="fill:none;stroke:#000000;stroke-width:1px;stroke-linecap:butt;stroke-linejoin:miter;stroke-opacity:1"
       d="m 320,180 40,0 0,-40"
       id="path3765"
       inkscape:connector-curvature="0" />
    <path
       style="fill:none;stroke:#000000;stroke-width:1px;stroke-linecap:butt;stroke-linejoin:miter;stroke-opacity:1"
       d="m 360,160 40,0"
       id="path3767"
       inkscape:connector-curvature="0" />
    <path
       style="fill:none;stroke:#000000;stroke-width:1px;stroke-linecap:butt;stroke-linejoin:miter;stroke-opacity:1"
       d="m 260,180 0,160"
       id="path3769"
       inkscape:connector-curvature="0" />
    <path
       style="fill:none;stroke:#000000;stroke-width:1px;stroke-linecap:butt;stroke-linejoin:miter;stroke-opacity:1"
       d="m 260,200 -40,0 0,20 -20,0"
       id="path3771"
       inkscape:connector-curvature="0" />
    <path
       style="fill:none;stroke:#000000;stroke-width:1px;stroke-linecap:butt;stroke-linejoin:miter;stroke-opacity:1"
       d="m 260,280 60,0 0,40"
       id="path3773"
       inkscape:connector-curvature="0" />
    <path
       style="fill:none;stroke:#000000;stroke-width:1px;stroke-linecap:butt;stroke-linejoin:miter;stroke-opacity:1"
       d="M 260,180 260,80"
       id="path3775"
       inkscape:connector-curvature="0" />
    <path
       style="fill:none;stroke:#000000;stroke-width:1px;stroke-linecap:butt;stroke-linejoin:miter;stroke-opacity:1"
       d="m 260,120 60,0"
       id="path3777"
       inkscape:connector-curvature="0" />
    <path
       style="fill:none;stroke:#000000;stroke-width:1px;stroke-linecap:butt;stroke-linejoin:miter;stroke-opacity:1"
       d="m 260,140 -60,0"
       id="path3779"
       inkscape:connector-curvature="0" />
    <path
       style="fill:none;stroke:#000000;stroke-width:1px;stroke-linecap:butt;stroke-linejoin:miter;stroke-opacity:1"
       d="m 260,240 20,0"
       id="path3781"
       inkscape:connector-curvature="0" />
    <path
       style="fill:none;stroke:#000000;stroke-width:1px;stroke-linecap:butt;stroke-linejoin:miter;stroke-opacity:1"
       d="m 260,80 40,0 0,-20 20,0"
       id="path3783"
       inkscape:connector-curvature="0" />
    <path
       sodipodi:type="arc"
       style="fill:#ff0000;fill-rule:evenodd;stroke:#ff0000;stroke-width:1px;stroke-linecap:butt;stroke-linejoin:miter;stroke-opacity:1"
       id="path3759"
       sodipodi:cx="264.65997"
       sodipodi:cy="185.14622"
       sodipodi:rx="4.5456862"
       sodipodi:ry="4.5456862"
       d="m 269.20566,185.14622 a 4.5456862,4.5456862 0 1 1 -9.09137,0 4.5456862,4.5456862 0 1 1 9.09137,0 z"
       transform="translate(-4.7142858,-5.6428571)" />
    <path
       transform="translate(15.285714,54.357143)"
       d="m 269.20566,185.14622 a 4.5456862,4.5456862 0 1 1 -9.09137,0 4.5456862,4.5456862 0 1 1 9.09137,0 z"
       sodipodi:ry="4.5456862"
       sodipodi:rx="4.5456862"
       sodipodi:cy="185.14622"
       sodipodi:cx="264.65997"
       id="path3785"
       style="fill:#0000ff;fill-rule:evenodd;stroke:#0000ff;stroke-width:1px;stroke-linecap:butt;stroke-linejoin:miter;stroke-opacity:1"
       sodipodi:type="arc" />
    <text
       xml:space="preserve"
       style="font-size:12px;font-style:normal;font-weight:normal;line-height:382.99999237%;letter-spacing:0px;word-spacing:0px;fill:#000000;fill-opacity:1;stroke:none;font-family:Times New Roman;-inkscape-font-specification:Times New Roman"
       x="200.64285"
       y="179.21931"
       id="text3787"
       sodipodi:linespacing="382.99999%"><tspan
         sodipodi:role="line"
         id="tspan3789"
         x="200.64285"
         y="179.21931">Substation</tspan></text>
    <text
       sodipodi:linespacing="382.99999%"
       id="text3791"
       y="243.21931"
       x="290.64285"
       style="font-size:12px;font-style:normal;font-weight:normal;line-height:382.99999237%;letter-spacing:0px;word-spacing:0px;fill:#000000;fill-opacity:1;stroke:none;font-family:Times New Roman;-inkscape-font-specification:Times New Roman"
       xml:space="preserve"><tspan
         y="243.21931"
         x="290.64285"
         id="tspan3793"
         sodipodi:role="line">Critical customer</tspan></text>
    <text
       xml:space="preserve"
       style="font-size:12px;font-style:normal;font-weight:normal;line-height:382.99999237%;letter-spacing:0px;word-spacing:0px;fill:#000000;fill-opacity:1;stroke:none;font-family:Times New Roman;-inkscape-font-specification:Times New Roman"
       x="180"
       y="355.86218"
       id="text3795"
       sodipodi:linespacing="382.99999%"><tspan
         sodipodi:role="line"
         id="tspan3797"
         x="180"
         y="355.86218">Each grid section is 1 mile by 1 mile</tspan></text>
    <rect
       style="color:#000000;fill:none;stroke:#0000ff;stroke-width:0.5;stroke-linecap:butt;stroke-linejoin:miter;stroke-miterlimit:4;stroke-opacity:1;stroke-dasharray:none;stroke-dashoffset:0;marker:none;visibility:visible;display:inline;overflow:visible;enable-background:accumulate"
       id="rect3801"
       width="320"
       height="339.99997"
       x="120"
       y="40" />
  </g>
</svg>
