<?xml version="1.0" encoding="UTF-8" standalone="no"?>
<!-- Created with Inkscape (http://www.inkscape.org/) -->

<svg
   xmlns:dc="http://purl.org/dc/elements/1.1/"
   xmlns:cc="http://creativecommons.org/ns#"
   xmlns:rdf="http://www.w3.org/1999/02/22-rdf-syntax-ns#"
   xmlns:svg="http://www.w3.org/2000/svg"
   xmlns="http://www.w3.org/2000/svg"
   xmlns:sodipodi="http://sodipodi.sourceforge.net/DTD/sodipodi-0.dtd"
   xmlns:inkscape="http://www.inkscape.org/namespaces/inkscape"
   id="svg6247"
   version="1.1"
   inkscape:version="0.91 r13725"
   width="7.9458079in"
   height="1.5133711in"
   xml:space="preserve"
   sodipodi:docname="strayvoltage.svg"><metadata
     id="metadata6253"><rdf:RDF><cc:Work
         rdf:about=""><dc:format>image/svg+xml</dc:format><dc:type
           rdf:resource="http://purl.org/dc/dcmitype/StillImage" /><dc:title></dc:title></cc:Work></rdf:RDF></metadata><defs
     id="defs6251"><inkscape:path-effect
       effect="skeletal"
       id="path-effect8291"
       is_visible="true"
       pattern="M 0,0 1,0"
       copytype="single_stretched"
       prop_scale="1"
       scale_y_rel="false"
       spacing="0"
       normal_offset="0"
       tang_offset="0"
       prop_units="false"
       vertical_pattern="false"
       fuse_tolerance="0" /></defs><sodipodi:namedview
     pagecolor="#ffffff"
     bordercolor="#666666"
     borderopacity="1"
     objecttolerance="10"
     gridtolerance="10"
     guidetolerance="10"
     inkscape:pageopacity="0"
     inkscape:pageshadow="2"
     inkscape:window-width="2560"
     inkscape:window-height="1577"
     id="namedview6249"
     showgrid="false"
     inkscape:zoom="3.8683544"
     inkscape:cx="648.193"
     inkscape:cy="112.19386"
     inkscape:window-x="1922"
     inkscape:window-y="-8"
     inkscape:window-maximized="1"
     inkscape:current-layer="g6255"
     inkscape:object-paths="true"
     inkscape:object-nodes="true"
     fit-margin-top="0.1"
     fit-margin-left="0.1"
     fit-margin-right="0"
     fit-margin-bottom="0.1"
     units="in" /><g
     id="g6255"
     inkscape:groupmode="layer"
     inkscape:label="ink_ext_XXXXXX"
     transform="matrix(1.25,0,0,-1.25,14.386142,86.802576)"><g
       id="g8317"
       transform="matrix(1.5524193,0,0,1.5524193,2.3803271,-34.383715)"><path
         inkscape:connector-curvature="0"
         inkscape:original-d="m 305.48,51.4496 0,-24.9801"
         inkscape:path-effect="#path-effect8291"
         id="path8289"
         d="m 305.48,51.4496 c 0,-8.3267 0,-16.6534 0,-24.9801"
         style="fill:#000000;fill-rule:evenodd;stroke:#000000;stroke-width:0.38649353;stroke-linecap:butt;stroke-linejoin:miter;stroke-miterlimit:4;stroke-dasharray:none;stroke-opacity:1" /><circle
         transform="scale(1,-1)"
         r="6.5143981"
         cy="-37.948956"
         cx="305.1427"
         id="path8277"
         style="fill:#ffffff;fill-rule:evenodd;stroke:#000000;stroke-width:0.3091948;stroke-linecap:butt;stroke-linejoin:miter;stroke-miterlimit:4;stroke-dasharray:none;stroke-opacity:1" /><path
         d="m 18.2109,26.4695 287.2691,0 0,0"
         style="fill:none;stroke:#000000;stroke-width:0.32181895;stroke-linecap:butt;stroke-linejoin:miter;stroke-miterlimit:10;stroke-dasharray:none;stroke-opacity:1"
         id="path6259"
         inkscape:connector-curvature="0" /><path
         d="m 48.1867,18.9758 0,-1.2492 -2.498,-0.6243 4.9961,-1.2492 -4.9961,-1.2488 4.9961,-1.2492 -4.9961,-1.2488 4.9961,-1.2489 -2.4981,-0.6246 0,-1.24921"
         style="fill:none;stroke:#000000;stroke-width:0.32181895;stroke-linecap:butt;stroke-linejoin:miter;stroke-miterlimit:10;stroke-dasharray:none;stroke-opacity:1"
         id="path6261"
         inkscape:connector-curvature="0" /><path
         d="m 48.1867,26.4695 0,-7.4937"
         style="fill:none;stroke:#000000;stroke-width:0.32181895;stroke-linecap:butt;stroke-linejoin:miter;stroke-miterlimit:10;stroke-dasharray:none;stroke-opacity:1"
         id="path6263"
         inkscape:connector-curvature="0" /><path
         d="m 48.1867,8.98359 0,-2.49765"
         style="fill:none;stroke:#000000;stroke-width:0.32181895;stroke-linecap:butt;stroke-linejoin:miter;stroke-miterlimit:10;stroke-dasharray:none;stroke-opacity:1"
         id="path6265"
         inkscape:connector-curvature="0" /><path
         d="m 48.1867,6.48594 0,-2.49805"
         style="fill:none;stroke:#000000;stroke-width:0.32181895;stroke-linecap:butt;stroke-linejoin:miter;stroke-miterlimit:10;stroke-dasharray:none;stroke-opacity:1"
         id="path6267"
         inkscape:connector-curvature="0" /><path
         d="m 45.6887,3.98789 4.9961,0"
         style="fill:none;stroke:#000000;stroke-width:0.32181895;stroke-linecap:butt;stroke-linejoin:miter;stroke-miterlimit:10;stroke-dasharray:none;stroke-opacity:1"
         id="path6269"
         inkscape:connector-curvature="0" /><path
         d="m 46.5254,2.73867 3.3226,0"
         style="fill:none;stroke:#000000;stroke-width:0.32181895;stroke-linecap:butt;stroke-linejoin:miter;stroke-miterlimit:10;stroke-dasharray:none;stroke-opacity:1"
         id="path6271"
         inkscape:connector-curvature="0" /><path
         d="m 47.3625,1.48984 1.6484,0"
         style="fill:none;stroke:#000000;stroke-width:0.32181895;stroke-linecap:butt;stroke-linejoin:miter;stroke-miterlimit:10;stroke-dasharray:none;stroke-opacity:1"
         id="path6273"
         inkscape:connector-curvature="0" /><path
         d="m 70.6688,18.9758 0,-1.2492 -2.4981,-0.6243 4.9961,-1.2492 -4.9961,-1.2488 4.9961,-1.2492 -4.9961,-1.2488 4.9961,-1.2489 -2.498,-0.6246 0,-1.24921"
         style="fill:none;stroke:#000000;stroke-width:0.32181895;stroke-linecap:butt;stroke-linejoin:miter;stroke-miterlimit:10;stroke-dasharray:none;stroke-opacity:1"
         id="path6275"
         inkscape:connector-curvature="0" /><path
         d="m 70.6688,26.4695 0,-7.4937"
         style="fill:none;stroke:#000000;stroke-width:0.32181895;stroke-linecap:butt;stroke-linejoin:miter;stroke-miterlimit:10;stroke-dasharray:none;stroke-opacity:1"
         id="path6277"
         inkscape:connector-curvature="0" /><path
         d="m 70.6688,8.98359 0,-2.49765"
         style="fill:none;stroke:#000000;stroke-width:0.32181895;stroke-linecap:butt;stroke-linejoin:miter;stroke-miterlimit:10;stroke-dasharray:none;stroke-opacity:1"
         id="path6279"
         inkscape:connector-curvature="0" /><path
         d="m 70.6688,6.48594 0,-2.49805"
         style="fill:none;stroke:#000000;stroke-width:0.32181895;stroke-linecap:butt;stroke-linejoin:miter;stroke-miterlimit:10;stroke-dasharray:none;stroke-opacity:1"
         id="path6281"
         inkscape:connector-curvature="0" /><path
         d="m 68.1707,3.98789 4.9961,0"
         style="fill:none;stroke:#000000;stroke-width:0.32181895;stroke-linecap:butt;stroke-linejoin:miter;stroke-miterlimit:10;stroke-dasharray:none;stroke-opacity:1"
         id="path6283"
         inkscape:connector-curvature="0" /><path
         d="m 69.0074,2.73867 3.3223,0"
         style="fill:none;stroke:#000000;stroke-width:0.32181895;stroke-linecap:butt;stroke-linejoin:miter;stroke-miterlimit:10;stroke-dasharray:none;stroke-opacity:1"
         id="path6285"
         inkscape:connector-curvature="0" /><path
         d="m 69.8441,1.48984 1.6489,0"
         style="fill:none;stroke:#000000;stroke-width:0.32181895;stroke-linecap:butt;stroke-linejoin:miter;stroke-miterlimit:10;stroke-dasharray:none;stroke-opacity:1"
         id="path6287"
         inkscape:connector-curvature="0" /><path
         d="m 93.1504,18.9758 0,-1.2492 -2.4977,-0.6243 4.9957,-1.2492 -4.9957,-1.2488 4.9957,-1.2492 -4.9957,-1.2488 4.9957,-1.2489 -2.498,-0.6246 0,-1.24921"
         style="fill:none;stroke:#000000;stroke-width:0.32181895;stroke-linecap:butt;stroke-linejoin:miter;stroke-miterlimit:10;stroke-dasharray:none;stroke-opacity:1"
         id="path6289"
         inkscape:connector-curvature="0" /><path
         d="m 93.1504,26.4695 0,-7.4937"
         style="fill:none;stroke:#000000;stroke-width:0.32181895;stroke-linecap:butt;stroke-linejoin:miter;stroke-miterlimit:10;stroke-dasharray:none;stroke-opacity:1"
         id="path6291"
         inkscape:connector-curvature="0" /><path
         d="m 93.1504,8.98359 0,-2.49765"
         style="fill:none;stroke:#000000;stroke-width:0.32181895;stroke-linecap:butt;stroke-linejoin:miter;stroke-miterlimit:10;stroke-dasharray:none;stroke-opacity:1"
         id="path6293"
         inkscape:connector-curvature="0" /><path
         d="m 93.1504,6.48594 0,-2.49805"
         style="fill:none;stroke:#000000;stroke-width:0.32181895;stroke-linecap:butt;stroke-linejoin:miter;stroke-miterlimit:10;stroke-dasharray:none;stroke-opacity:1"
         id="path6295"
         inkscape:connector-curvature="0" /><path
         d="m 90.6527,3.98789 4.9957,0"
         style="fill:none;stroke:#000000;stroke-width:0.32181895;stroke-linecap:butt;stroke-linejoin:miter;stroke-miterlimit:10;stroke-dasharray:none;stroke-opacity:1"
         id="path6297"
         inkscape:connector-curvature="0" /><path
         d="m 91.4895,2.73867 3.3222,0"
         style="fill:none;stroke:#000000;stroke-width:0.32181895;stroke-linecap:butt;stroke-linejoin:miter;stroke-miterlimit:10;stroke-dasharray:none;stroke-opacity:1"
         id="path6299"
         inkscape:connector-curvature="0" /><path
         d="m 92.3262,1.48984 1.6488,0"
         style="fill:none;stroke:#000000;stroke-width:0.32181895;stroke-linecap:butt;stroke-linejoin:miter;stroke-miterlimit:10;stroke-dasharray:none;stroke-opacity:1"
         id="path6301"
         inkscape:connector-curvature="0" /><path
         d="m 115.632,18.9758 0,-1.2492 -2.498,-0.6243 4.996,-1.2492 -4.996,-1.2488 4.996,-1.2492 -4.996,-1.2488 4.996,-1.2489 -2.498,-0.6246 0,-1.24921"
         style="fill:none;stroke:#000000;stroke-width:0.32181895;stroke-linecap:butt;stroke-linejoin:miter;stroke-miterlimit:10;stroke-dasharray:none;stroke-opacity:1"
         id="path6303"
         inkscape:connector-curvature="0" /><path
         d="m 115.632,26.4695 0,-7.4937"
         style="fill:none;stroke:#000000;stroke-width:0.32181895;stroke-linecap:butt;stroke-linejoin:miter;stroke-miterlimit:10;stroke-dasharray:none;stroke-opacity:1"
         id="path6305"
         inkscape:connector-curvature="0" /><path
         d="m 115.632,8.98359 0,-2.49765"
         style="fill:none;stroke:#000000;stroke-width:0.32181895;stroke-linecap:butt;stroke-linejoin:miter;stroke-miterlimit:10;stroke-dasharray:none;stroke-opacity:1"
         id="path6307"
         inkscape:connector-curvature="0" /><path
         d="m 115.632,6.48594 0,-2.49805"
         style="fill:none;stroke:#000000;stroke-width:0.32181895;stroke-linecap:butt;stroke-linejoin:miter;stroke-miterlimit:10;stroke-dasharray:none;stroke-opacity:1"
         id="path6309"
         inkscape:connector-curvature="0" /><path
         d="m 113.134,3.98789 4.996,0"
         style="fill:none;stroke:#000000;stroke-width:0.32181895;stroke-linecap:butt;stroke-linejoin:miter;stroke-miterlimit:10;stroke-dasharray:none;stroke-opacity:1"
         id="path6311"
         inkscape:connector-curvature="0" /><path
         d="m 113.971,2.73867 3.323,0"
         style="fill:none;stroke:#000000;stroke-width:0.32181895;stroke-linecap:butt;stroke-linejoin:miter;stroke-miterlimit:10;stroke-dasharray:none;stroke-opacity:1"
         id="path6313"
         inkscape:connector-curvature="0" /><path
         d="m 114.808,1.48984 1.649,0"
         style="fill:none;stroke:#000000;stroke-width:0.32181895;stroke-linecap:butt;stroke-linejoin:miter;stroke-miterlimit:10;stroke-dasharray:none;stroke-opacity:1"
         id="path6315"
         inkscape:connector-curvature="0" /><path
         d="m 138.114,18.9758 0,-1.2492 -2.498,-0.6243 4.997,-1.2492 -4.997,-1.2488 4.997,-1.2492 -4.997,-1.2488 4.997,-1.2489 -2.499,-0.6246 0,-1.24921"
         style="fill:none;stroke:#000000;stroke-width:0.32181895;stroke-linecap:butt;stroke-linejoin:miter;stroke-miterlimit:10;stroke-dasharray:none;stroke-opacity:1"
         id="path6317"
         inkscape:connector-curvature="0" /><path
         d="m 138.114,26.4695 0,-7.4937"
         style="fill:none;stroke:#000000;stroke-width:0.32181895;stroke-linecap:butt;stroke-linejoin:miter;stroke-miterlimit:10;stroke-dasharray:none;stroke-opacity:1"
         id="path6319"
         inkscape:connector-curvature="0" /><path
         d="m 138.114,8.98359 0,-2.49765"
         style="fill:none;stroke:#000000;stroke-width:0.32181895;stroke-linecap:butt;stroke-linejoin:miter;stroke-miterlimit:10;stroke-dasharray:none;stroke-opacity:1"
         id="path6321"
         inkscape:connector-curvature="0" /><path
         d="m 138.114,6.48594 0,-2.49805"
         style="fill:none;stroke:#000000;stroke-width:0.32181895;stroke-linecap:butt;stroke-linejoin:miter;stroke-miterlimit:10;stroke-dasharray:none;stroke-opacity:1"
         id="path6323"
         inkscape:connector-curvature="0" /><path
         d="m 135.616,3.98789 4.997,0"
         style="fill:none;stroke:#000000;stroke-width:0.32181895;stroke-linecap:butt;stroke-linejoin:miter;stroke-miterlimit:10;stroke-dasharray:none;stroke-opacity:1"
         id="path6325"
         inkscape:connector-curvature="0" /><path
         d="m 136.453,2.73867 3.322,0"
         style="fill:none;stroke:#000000;stroke-width:0.32181895;stroke-linecap:butt;stroke-linejoin:miter;stroke-miterlimit:10;stroke-dasharray:none;stroke-opacity:1"
         id="path6327"
         inkscape:connector-curvature="0" /><path
         d="m 137.29,1.48984 1.649,0"
         style="fill:none;stroke:#000000;stroke-width:0.32181895;stroke-linecap:butt;stroke-linejoin:miter;stroke-miterlimit:10;stroke-dasharray:none;stroke-opacity:1"
         id="path6329"
         inkscape:connector-curvature="0" /><path
         d="m 160.596,18.9758 0,-1.2492 -2.498,-0.6243 4.996,-1.2492 -4.996,-1.2488 4.996,-1.2492 -4.996,-1.2488 4.996,-1.2489 -2.498,-0.6246 0,-1.24921"
         style="fill:none;stroke:#000000;stroke-width:0.32181895;stroke-linecap:butt;stroke-linejoin:miter;stroke-miterlimit:10;stroke-dasharray:none;stroke-opacity:1"
         id="path6331"
         inkscape:connector-curvature="0" /><path
         d="m 160.596,26.4695 0,-7.4937"
         style="fill:none;stroke:#000000;stroke-width:0.32181895;stroke-linecap:butt;stroke-linejoin:miter;stroke-miterlimit:10;stroke-dasharray:none;stroke-opacity:1"
         id="path6333"
         inkscape:connector-curvature="0" /><path
         d="m 160.596,8.98359 0,-2.49765"
         style="fill:none;stroke:#000000;stroke-width:0.32181895;stroke-linecap:butt;stroke-linejoin:miter;stroke-miterlimit:10;stroke-dasharray:none;stroke-opacity:1"
         id="path6335"
         inkscape:connector-curvature="0" /><path
         d="m 160.596,6.48594 0,-2.49805"
         style="fill:none;stroke:#000000;stroke-width:0.32181895;stroke-linecap:butt;stroke-linejoin:miter;stroke-miterlimit:10;stroke-dasharray:none;stroke-opacity:1"
         id="path6337"
         inkscape:connector-curvature="0" /><path
         d="m 158.098,3.98789 4.996,0"
         style="fill:none;stroke:#000000;stroke-width:0.32181895;stroke-linecap:butt;stroke-linejoin:miter;stroke-miterlimit:10;stroke-dasharray:none;stroke-opacity:1"
         id="path6339"
         inkscape:connector-curvature="0" /><path
         d="m 158.935,2.73867 3.322,0"
         style="fill:none;stroke:#000000;stroke-width:0.32181895;stroke-linecap:butt;stroke-linejoin:miter;stroke-miterlimit:10;stroke-dasharray:none;stroke-opacity:1"
         id="path6341"
         inkscape:connector-curvature="0" /><path
         d="m 159.772,1.48984 1.649,0"
         style="fill:none;stroke:#000000;stroke-width:0.32181895;stroke-linecap:butt;stroke-linejoin:miter;stroke-miterlimit:10;stroke-dasharray:none;stroke-opacity:1"
         id="path6343"
         inkscape:connector-curvature="0" /><path
         d="m 183.078,18.9758 0,-1.2492 -2.498,-0.6243 4.996,-1.2492 -4.996,-1.2488 4.996,-1.2492 -4.996,-1.2488 4.996,-1.2489 -2.498,-0.6246 0,-1.24921"
         style="fill:none;stroke:#000000;stroke-width:0.32181895;stroke-linecap:butt;stroke-linejoin:miter;stroke-miterlimit:10;stroke-dasharray:none;stroke-opacity:1"
         id="path6345"
         inkscape:connector-curvature="0" /><path
         d="m 183.078,26.4695 0,-7.4937"
         style="fill:none;stroke:#000000;stroke-width:0.32181895;stroke-linecap:butt;stroke-linejoin:miter;stroke-miterlimit:10;stroke-dasharray:none;stroke-opacity:1"
         id="path6347"
         inkscape:connector-curvature="0" /><path
         d="m 183.078,8.98359 0,-2.49765"
         style="fill:none;stroke:#000000;stroke-width:0.32181895;stroke-linecap:butt;stroke-linejoin:miter;stroke-miterlimit:10;stroke-dasharray:none;stroke-opacity:1"
         id="path6349"
         inkscape:connector-curvature="0" /><path
         d="m 183.078,6.48594 0,-2.49805"
         style="fill:none;stroke:#000000;stroke-width:0.32181895;stroke-linecap:butt;stroke-linejoin:miter;stroke-miterlimit:10;stroke-dasharray:none;stroke-opacity:1"
         id="path6351"
         inkscape:connector-curvature="0" /><path
         d="m 180.58,3.98789 4.996,0"
         style="fill:none;stroke:#000000;stroke-width:0.32181895;stroke-linecap:butt;stroke-linejoin:miter;stroke-miterlimit:10;stroke-dasharray:none;stroke-opacity:1"
         id="path6353"
         inkscape:connector-curvature="0" /><path
         d="m 181.417,2.73867 3.322,0"
         style="fill:none;stroke:#000000;stroke-width:0.32181895;stroke-linecap:butt;stroke-linejoin:miter;stroke-miterlimit:10;stroke-dasharray:none;stroke-opacity:1"
         id="path6355"
         inkscape:connector-curvature="0" /><path
         d="m 182.254,1.48984 1.649,0"
         style="fill:none;stroke:#000000;stroke-width:0.32181895;stroke-linecap:butt;stroke-linejoin:miter;stroke-miterlimit:10;stroke-dasharray:none;stroke-opacity:1"
         id="path6357"
         inkscape:connector-curvature="0" /><path
         d="m 205.56,18.9758 0,-1.2492 -2.498,-0.6243 4.996,-1.2492 -4.996,-1.2488 4.996,-1.2492 -4.996,-1.2488 4.996,-1.2489 -2.498,-0.6246 0,-1.24921"
         style="fill:none;stroke:#000000;stroke-width:0.32181895;stroke-linecap:butt;stroke-linejoin:miter;stroke-miterlimit:10;stroke-dasharray:none;stroke-opacity:1"
         id="path6359"
         inkscape:connector-curvature="0" /><path
         d="m 205.56,26.4695 0,-7.4937"
         style="fill:none;stroke:#000000;stroke-width:0.32181895;stroke-linecap:butt;stroke-linejoin:miter;stroke-miterlimit:10;stroke-dasharray:none;stroke-opacity:1"
         id="path6361"
         inkscape:connector-curvature="0" /><path
         d="m 205.56,8.98359 0,-2.49765"
         style="fill:none;stroke:#000000;stroke-width:0.32181895;stroke-linecap:butt;stroke-linejoin:miter;stroke-miterlimit:10;stroke-dasharray:none;stroke-opacity:1"
         id="path6363"
         inkscape:connector-curvature="0" /><path
         d="m 205.56,6.48594 0,-2.49805"
         style="fill:none;stroke:#000000;stroke-width:0.32181895;stroke-linecap:butt;stroke-linejoin:miter;stroke-miterlimit:10;stroke-dasharray:none;stroke-opacity:1"
         id="path6365"
         inkscape:connector-curvature="0" /><path
         d="m 203.062,3.98789 4.996,0"
         style="fill:none;stroke:#000000;stroke-width:0.32181895;stroke-linecap:butt;stroke-linejoin:miter;stroke-miterlimit:10;stroke-dasharray:none;stroke-opacity:1"
         id="path6367"
         inkscape:connector-curvature="0" /><path
         d="m 203.899,2.73867 3.322,0"
         style="fill:none;stroke:#000000;stroke-width:0.32181895;stroke-linecap:butt;stroke-linejoin:miter;stroke-miterlimit:10;stroke-dasharray:none;stroke-opacity:1"
         id="path6369"
         inkscape:connector-curvature="0" /><path
         d="m 204.736,1.48984 1.648,0"
         style="fill:none;stroke:#000000;stroke-width:0.32181895;stroke-linecap:butt;stroke-linejoin:miter;stroke-miterlimit:10;stroke-dasharray:none;stroke-opacity:1"
         id="path6371"
         inkscape:connector-curvature="0" /><path
         d="m 228.042,18.9758 0,-1.2492 -2.498,-0.6243 4.996,-1.2492 -4.996,-1.2488 4.996,-1.2492 -4.996,-1.2488 4.996,-1.2489 -2.498,-0.6246 0,-1.24921"
         style="fill:none;stroke:#000000;stroke-width:0.32181895;stroke-linecap:butt;stroke-linejoin:miter;stroke-miterlimit:10;stroke-dasharray:none;stroke-opacity:1"
         id="path6373"
         inkscape:connector-curvature="0" /><path
         d="m 228.042,26.4695 0,-7.4937"
         style="fill:none;stroke:#000000;stroke-width:0.32181895;stroke-linecap:butt;stroke-linejoin:miter;stroke-miterlimit:10;stroke-dasharray:none;stroke-opacity:1"
         id="path6375"
         inkscape:connector-curvature="0" /><path
         d="m 228.042,8.98359 0,-2.49765"
         style="fill:none;stroke:#000000;stroke-width:0.32181895;stroke-linecap:butt;stroke-linejoin:miter;stroke-miterlimit:10;stroke-dasharray:none;stroke-opacity:1"
         id="path6377"
         inkscape:connector-curvature="0" /><path
         d="m 228.042,6.48594 0,-2.49805"
         style="fill:none;stroke:#000000;stroke-width:0.32181895;stroke-linecap:butt;stroke-linejoin:miter;stroke-miterlimit:10;stroke-dasharray:none;stroke-opacity:1"
         id="path6379"
         inkscape:connector-curvature="0" /><path
         d="m 225.544,3.98789 4.996,0"
         style="fill:none;stroke:#000000;stroke-width:0.32181895;stroke-linecap:butt;stroke-linejoin:miter;stroke-miterlimit:10;stroke-dasharray:none;stroke-opacity:1"
         id="path6381"
         inkscape:connector-curvature="0" /><path
         d="m 226.381,2.73867 3.322,0"
         style="fill:none;stroke:#000000;stroke-width:0.32181895;stroke-linecap:butt;stroke-linejoin:miter;stroke-miterlimit:10;stroke-dasharray:none;stroke-opacity:1"
         id="path6383"
         inkscape:connector-curvature="0" /><path
         d="m 227.218,1.48984 1.648,0"
         style="fill:none;stroke:#000000;stroke-width:0.32181895;stroke-linecap:butt;stroke-linejoin:miter;stroke-miterlimit:10;stroke-dasharray:none;stroke-opacity:1"
         id="path6385"
         inkscape:connector-curvature="0" /><path
         d="m 250.524,18.9758 0,-1.2492 -2.498,-0.6243 4.996,-1.2492 -4.996,-1.2488 4.996,-1.2492 -4.996,-1.2488 4.996,-1.2489 -2.498,-0.6246 0,-1.24921"
         style="fill:none;stroke:#000000;stroke-width:0.32181895;stroke-linecap:butt;stroke-linejoin:miter;stroke-miterlimit:10;stroke-dasharray:none;stroke-opacity:1"
         id="path6387"
         inkscape:connector-curvature="0" /><path
         d="m 250.524,26.4695 0,-7.4937"
         style="fill:none;stroke:#000000;stroke-width:0.32181895;stroke-linecap:butt;stroke-linejoin:miter;stroke-miterlimit:10;stroke-dasharray:none;stroke-opacity:1"
         id="path6389"
         inkscape:connector-curvature="0" /><path
         d="m 250.524,8.98359 0,-2.49765"
         style="fill:none;stroke:#000000;stroke-width:0.32181895;stroke-linecap:butt;stroke-linejoin:miter;stroke-miterlimit:10;stroke-dasharray:none;stroke-opacity:1"
         id="path6391"
         inkscape:connector-curvature="0" /><path
         d="m 250.524,6.48594 0,-2.49805"
         style="fill:none;stroke:#000000;stroke-width:0.32181895;stroke-linecap:butt;stroke-linejoin:miter;stroke-miterlimit:10;stroke-dasharray:none;stroke-opacity:1"
         id="path6393"
         inkscape:connector-curvature="0" /><path
         d="m 248.026,3.98789 4.996,0"
         style="fill:none;stroke:#000000;stroke-width:0.32181895;stroke-linecap:butt;stroke-linejoin:miter;stroke-miterlimit:10;stroke-dasharray:none;stroke-opacity:1"
         id="path6395"
         inkscape:connector-curvature="0" /><path
         d="m 248.863,2.73867 3.322,0"
         style="fill:none;stroke:#000000;stroke-width:0.32181895;stroke-linecap:butt;stroke-linejoin:miter;stroke-miterlimit:10;stroke-dasharray:none;stroke-opacity:1"
         id="path6397"
         inkscape:connector-curvature="0" /><path
         d="m 249.7,1.48984 1.648,0"
         style="fill:none;stroke:#000000;stroke-width:0.32181895;stroke-linecap:butt;stroke-linejoin:miter;stroke-miterlimit:10;stroke-dasharray:none;stroke-opacity:1"
         id="path6399"
         inkscape:connector-curvature="0" /><path
         d="m 273.006,18.9758 0,-1.2492 -2.498,-0.6243 4.996,-1.2492 -4.996,-1.2488 4.996,-1.2492 -4.996,-1.2488 4.996,-1.2489 -2.498,-0.6246 0,-1.24921"
         style="fill:none;stroke:#000000;stroke-width:0.32181895;stroke-linecap:butt;stroke-linejoin:miter;stroke-miterlimit:10;stroke-dasharray:none;stroke-opacity:1"
         id="path6401"
         inkscape:connector-curvature="0" /><path
         d="m 273.006,26.4695 0,-7.4937"
         style="fill:none;stroke:#000000;stroke-width:0.32181895;stroke-linecap:butt;stroke-linejoin:miter;stroke-miterlimit:10;stroke-dasharray:none;stroke-opacity:1"
         id="path6403"
         inkscape:connector-curvature="0" /><path
         d="m 273.006,8.98359 0,-2.49765"
         style="fill:none;stroke:#000000;stroke-width:0.32181895;stroke-linecap:butt;stroke-linejoin:miter;stroke-miterlimit:10;stroke-dasharray:none;stroke-opacity:1"
         id="path6405"
         inkscape:connector-curvature="0" /><path
         d="m 273.006,6.48594 0,-2.49805"
         style="fill:none;stroke:#000000;stroke-width:0.32181895;stroke-linecap:butt;stroke-linejoin:miter;stroke-miterlimit:10;stroke-dasharray:none;stroke-opacity:1"
         id="path6407"
         inkscape:connector-curvature="0" /><path
         d="m 270.508,3.98789 4.996,0"
         style="fill:none;stroke:#000000;stroke-width:0.32181895;stroke-linecap:butt;stroke-linejoin:miter;stroke-miterlimit:10;stroke-dasharray:none;stroke-opacity:1"
         id="path6409"
         inkscape:connector-curvature="0" /><path
         d="m 271.345,2.73867 3.322,0"
         style="fill:none;stroke:#000000;stroke-width:0.32181895;stroke-linecap:butt;stroke-linejoin:miter;stroke-miterlimit:10;stroke-dasharray:none;stroke-opacity:1"
         id="path6411"
         inkscape:connector-curvature="0" /><path
         d="m 272.182,1.48984 1.648,0"
         style="fill:none;stroke:#000000;stroke-width:0.32181895;stroke-linecap:butt;stroke-linejoin:miter;stroke-miterlimit:10;stroke-dasharray:none;stroke-opacity:1"
         id="path6413"
         inkscape:connector-curvature="0" /><path
         d="m 295.488,18.9758 0,-1.2492 -2.498,-0.6243 4.996,-1.2492 -4.996,-1.2488 4.996,-1.2492 -4.996,-1.2488 4.996,-1.2489 -2.498,-0.6246 0,-1.24921"
         style="fill:none;stroke:#000000;stroke-width:0.32181895;stroke-linecap:butt;stroke-linejoin:miter;stroke-miterlimit:10;stroke-dasharray:none;stroke-opacity:1"
         id="path6415"
         inkscape:connector-curvature="0" /><path
         d="m 295.488,26.4695 0,-7.4937"
         style="fill:none;stroke:#000000;stroke-width:0.32181895;stroke-linecap:butt;stroke-linejoin:miter;stroke-miterlimit:10;stroke-dasharray:none;stroke-opacity:1"
         id="path6417"
         inkscape:connector-curvature="0" /><path
         d="m 295.488,8.98359 0,-2.49765"
         style="fill:none;stroke:#000000;stroke-width:0.32181895;stroke-linecap:butt;stroke-linejoin:miter;stroke-miterlimit:10;stroke-dasharray:none;stroke-opacity:1"
         id="path6419"
         inkscape:connector-curvature="0" /><path
         d="m 295.488,6.48594 0,-2.49805"
         style="fill:none;stroke:#000000;stroke-width:0.32181895;stroke-linecap:butt;stroke-linejoin:miter;stroke-miterlimit:10;stroke-dasharray:none;stroke-opacity:1"
         id="path6421"
         inkscape:connector-curvature="0" /><path
         d="m 292.99,3.98789 4.996,0"
         style="fill:none;stroke:#000000;stroke-width:0.32181895;stroke-linecap:butt;stroke-linejoin:miter;stroke-miterlimit:10;stroke-dasharray:none;stroke-opacity:1"
         id="path6423"
         inkscape:connector-curvature="0" /><path
         d="m 293.827,2.73867 3.322,0"
         style="fill:none;stroke:#000000;stroke-width:0.32181895;stroke-linecap:butt;stroke-linejoin:miter;stroke-miterlimit:10;stroke-dasharray:none;stroke-opacity:1"
         id="path6425"
         inkscape:connector-curvature="0" /><path
         d="m 294.664,1.48984 1.648,0"
         style="fill:none;stroke:#000000;stroke-width:0.32181895;stroke-linecap:butt;stroke-linejoin:miter;stroke-miterlimit:10;stroke-dasharray:none;stroke-opacity:1"
         id="path6427"
         inkscape:connector-curvature="0" /><path
         sodipodi:nodetypes="ccc"
         d="M 18.2109,51.547448 305.48,51.4496 l 0,0"
         style="fill:none;stroke:#000000;stroke-width:0.32181895;stroke-linecap:butt;stroke-linejoin:miter;stroke-miterlimit:10;stroke-dasharray:none;stroke-opacity:1"
         id="path6429"
         inkscape:connector-curvature="0" /><path
         d="m 18.2109,6.48594 0,-2.49805"
         style="fill:none;stroke:#000000;stroke-width:0.32181895;stroke-linecap:butt;stroke-linejoin:miter;stroke-miterlimit:10;stroke-dasharray:none;stroke-opacity:1"
         id="path6457"
         inkscape:connector-curvature="0" /><path
         d="m 15.7129,3.98789 4.9961,0"
         style="fill:none;stroke:#000000;stroke-width:0.32181895;stroke-linecap:butt;stroke-linejoin:miter;stroke-miterlimit:10;stroke-dasharray:none;stroke-opacity:1"
         id="path6459"
         inkscape:connector-curvature="0" /><path
         d="m 16.5496,2.73867 3.3223,0"
         style="fill:none;stroke:#000000;stroke-width:0.32181895;stroke-linecap:butt;stroke-linejoin:miter;stroke-miterlimit:10;stroke-dasharray:none;stroke-opacity:1"
         id="path6461"
         inkscape:connector-curvature="0" /><path
         d="m 17.3863,1.48984 1.6489,0"
         style="fill:none;stroke:#000000;stroke-width:0.32181895;stroke-linecap:butt;stroke-linejoin:miter;stroke-miterlimit:10;stroke-dasharray:none;stroke-opacity:1"
         id="path6463"
         inkscape:connector-curvature="0" /><path
         d="m 18.2109,51.547448 0,-32.571648"
         style="fill:none;stroke:#000000;stroke-width:0.32181895;stroke-linecap:butt;stroke-linejoin:miter;stroke-miterlimit:10;stroke-dasharray:none;stroke-opacity:1"
         id="path6465"
         inkscape:connector-curvature="0" /><path
         d="m 19.2102,26.4695 c 0,-0.5515 -0.4477,-0.9988 -0.9993,-0.9988 -0.5515,0 -0.9992,0.4473 -0.9992,0.9988 0,0.5516 0.4477,0.9993 0.9992,0.9993 0.5516,0 0.9993,-0.4477 0.9993,-0.9993"
         style="fill:#000000;fill-opacity:1;fill-rule:nonzero;stroke:none"
         id="path6469"
         inkscape:connector-curvature="0" /><path
         d="m 18.2109,18.9758 0,-1.2492 -2.498,-0.6243 4.9961,-1.2492 -4.9961,-1.2488 4.9961,-1.2492 -4.9961,-1.2488 4.9961,-1.2489 -2.4981,-0.6246 0,-1.24921"
         style="fill:none;stroke:#000000;stroke-width:0.32181895;stroke-linecap:butt;stroke-linejoin:miter;stroke-miterlimit:10;stroke-dasharray:none;stroke-opacity:1"
         id="path6471"
         inkscape:connector-curvature="0" /><path
         d="m 18.2109,8.98359 0,-2.49765"
         style="fill:none;stroke:#000000;stroke-width:0.32181895;stroke-linecap:butt;stroke-linejoin:miter;stroke-miterlimit:10;stroke-dasharray:none;stroke-opacity:1"
         id="path6473"
         inkscape:connector-curvature="0" /><path
         d="m 266.012,7.98477 1.998,-3.99688 1.998,3.99688"
         style="fill:#ffffff;fill-opacity:1;fill-rule:nonzero;stroke:none"
         id="path6509"
         inkscape:connector-curvature="0" /><path
         d="m 288.493,7.98477 1.999,-3.99688 1.998,3.99688"
         style="fill:#ffffff;fill-opacity:1;fill-rule:nonzero;stroke:none"
         id="path6515"
         inkscape:connector-curvature="0" /><path
         d="m 49.1859,26.4695 c 0,-0.5515 -0.4476,-0.9988 -0.9992,-0.9988 -0.5515,0 -0.9992,0.4473 -0.9992,0.9988 0,0.5516 0.4477,0.9993 0.9992,0.9993 0.5516,0 0.9992,-0.4477 0.9992,-0.9993"
         style="fill:#000000;fill-opacity:1;fill-rule:nonzero;stroke:none"
         id="path6543"
         inkscape:connector-curvature="0" /><path
         d="m 71.668,26.4695 c 0,-0.5515 -0.4477,-0.9988 -0.9992,-0.9988 -0.5516,0 -0.9993,0.4473 -0.9993,0.9988 0,0.5516 0.4477,0.9993 0.9993,0.9993 0.5515,0 0.9992,-0.4477 0.9992,-0.9993"
         style="fill:#000000;fill-opacity:1;fill-rule:nonzero;stroke:none"
         id="path6545"
         inkscape:connector-curvature="0" /><path
         d="m 94.1496,26.4695 c 0,-0.5515 -0.4476,-0.9988 -0.9992,-0.9988 -0.5516,0 -0.9992,0.4473 -0.9992,0.9988 0,0.5516 0.4476,0.9993 0.9992,0.9993 0.5516,0 0.9992,-0.4477 0.9992,-0.9993"
         style="fill:#000000;fill-opacity:1;fill-rule:nonzero;stroke:none"
         id="path6547"
         inkscape:connector-curvature="0" /><path
         d="m 116.632,26.4695 c 0,-0.5515 -0.448,-0.9988 -1,-0.9988 -0.551,0 -0.999,0.4473 -0.999,0.9988 0,0.5516 0.448,0.9993 0.999,0.9993 0.552,0 1,-0.4477 1,-0.9993"
         style="fill:#000000;fill-opacity:1;fill-rule:nonzero;stroke:none"
         id="path6549"
         inkscape:connector-curvature="0" /><path
         d="m 139.114,26.4695 c 0,-0.5515 -0.448,-0.9988 -1,-0.9988 -0.551,0 -0.999,0.4473 -0.999,0.9988 0,0.5516 0.448,0.9993 0.999,0.9993 0.552,0 1,-0.4477 1,-0.9993"
         style="fill:#000000;fill-opacity:1;fill-rule:nonzero;stroke:none"
         id="path6551"
         inkscape:connector-curvature="0" /><path
         d="m 161.596,26.4695 c 0,-0.5515 -0.448,-0.9988 -1,-0.9988 -0.551,0 -0.999,0.4473 -0.999,0.9988 0,0.5516 0.448,0.9993 0.999,0.9993 0.552,0 1,-0.4477 1,-0.9993"
         style="fill:#000000;fill-opacity:1;fill-rule:nonzero;stroke:none"
         id="path6553"
         inkscape:connector-curvature="0" /><path
         d="m 184.077,26.4695 c 0,-0.5515 -0.447,-0.9988 -0.999,-0.9988 -0.551,0 -0.999,0.4473 -0.999,0.9988 0,0.5516 0.448,0.9993 0.999,0.9993 0.552,0 0.999,-0.4477 0.999,-0.9993"
         style="fill:#000000;fill-opacity:1;fill-rule:nonzero;stroke:none"
         id="path6555"
         inkscape:connector-curvature="0" /><path
         d="m 206.559,26.4695 c 0,-0.5515 -0.447,-0.9988 -0.999,-0.9988 -0.551,0 -0.999,0.4473 -0.999,0.9988 0,0.5516 0.448,0.9993 0.999,0.9993 0.552,0 0.999,-0.4477 0.999,-0.9993"
         style="fill:#000000;fill-opacity:1;fill-rule:nonzero;stroke:none"
         id="path6557"
         inkscape:connector-curvature="0" /><path
         d="m 229.041,26.4695 c 0,-0.5515 -0.447,-0.9988 -0.999,-0.9988 -0.551,0 -0.999,0.4473 -0.999,0.9988 0,0.5516 0.448,0.9993 0.999,0.9993 0.552,0 0.999,-0.4477 0.999,-0.9993"
         style="fill:#000000;fill-opacity:1;fill-rule:nonzero;stroke:none"
         id="path6559"
         inkscape:connector-curvature="0" /><path
         d="m 251.523,26.4695 c 0,-0.5515 -0.447,-0.9988 -0.999,-0.9988 -0.551,0 -0.999,0.4473 -0.999,0.9988 0,0.5516 0.448,0.9993 0.999,0.9993 0.552,0 0.999,-0.4477 0.999,-0.9993"
         style="fill:#000000;fill-opacity:1;fill-rule:nonzero;stroke:none"
         id="path6561"
         inkscape:connector-curvature="0" /><path
         d="m 274.005,26.4695 c 0,-0.5515 -0.448,-0.9988 -0.999,-0.9988 -0.552,0 -0.999,0.4473 -0.999,0.9988 0,0.5516 0.447,0.9993 0.999,0.9993 0.551,0 0.999,-0.4477 0.999,-0.9993"
         style="fill:#000000;fill-opacity:1;fill-rule:nonzero;stroke:none"
         id="path6563"
         inkscape:connector-curvature="0" /><path
         d="m 296.487,26.4695 c 0,-0.5515 -0.448,-0.9988 -0.999,-0.9988 -0.552,0 -0.999,0.4473 -0.999,0.9988 0,0.5516 0.447,0.9993 0.999,0.9993 0.551,0 0.999,-0.4477 0.999,-0.9993"
         style="fill:#000000;fill-opacity:1;fill-rule:nonzero;stroke:none"
         id="path6565"
         inkscape:connector-curvature="0" /><text
         transform="scale(1,-1)"
         sodipodi:linespacing="382.99999%"
         id="text8269"
         y="-30.552877"
         x="183.72311"
         style="font-style:normal;font-weight:normal;font-size:9.60000038px;line-height:382.99999237%;font-family:'Times New Roman';-inkscape-font-specification:'Times New Roman';letter-spacing:0px;word-spacing:0px;fill:#000000;fill-opacity:1;stroke:none;stroke-width:1px;stroke-linecap:butt;stroke-linejoin:miter;stroke-opacity:1"
         xml:space="preserve"><tspan
           y="-30.552877"
           x="183.72311"
           id="tspan8271"
           sodipodi:role="line">Neutral</tspan></text>
<text
         xml:space="preserve"
         style="font-style:normal;font-weight:normal;font-size:9.60000038px;line-height:382.99999237%;font-family:'Times New Roman';-inkscape-font-specification:'Times New Roman';letter-spacing:0px;word-spacing:0px;fill:#000000;fill-opacity:1;stroke:none;stroke-width:1px;stroke-linecap:butt;stroke-linejoin:miter;stroke-opacity:1"
         x="183.43716"
         y="-55.576435"
         id="text8273"
         sodipodi:linespacing="382.99999%"
         transform="scale(1,-1)"><tspan
           sodipodi:role="line"
           id="tspan8275"
           x="183.43716"
           y="-55.576435">Phase</tspan></text>
<g
         transform="translate(3.3089005,3.7225131)"
         id="g8279"
         style="fill:#ffffff"><path
           inkscape:connector-curvature="0"
           id="path6513"
           style="fill:#ffffff;stroke:#0000ff;stroke-width:0.32181895;stroke-linecap:butt;stroke-linejoin:miter;stroke-miterlimit:10;stroke-dasharray:none;stroke-opacity:1"
           d="m 301.86635,38.622397 0,-7.956496" /><path
           inkscape:connector-curvature="0"
           id="path6517"
           style="fill:#ffffff;stroke:#0000ff;stroke-width:0.32181895;stroke-linecap:butt;stroke-linejoin:miter;stroke-miterlimit:10;stroke-dasharray:none;stroke-opacity:1"
           d="m 299.86735,34.662781 1.999,-3.99688 1.998,3.99688 -3.997,0 z" /></g><circle
         style="fill:#ffffff;fill-rule:evenodd;stroke:#000000;stroke-width:0.3091948;stroke-linecap:butt;stroke-linejoin:miter;stroke-miterlimit:4;stroke-dasharray:none;stroke-opacity:1"
         id="circle8297"
         cx="18.302383"
         cy="-38.569374"
         r="6.5143981"
         transform="scale(1,-1)" /><text
         transform="scale(1,-1)"
         sodipodi:linespacing="382.99999%"
         id="text8299"
         y="-55.369629"
         x="-4.9089136"
         style="font-style:normal;font-weight:normal;font-size:9.60000038px;line-height:382.99999237%;font-family:'Times New Roman';-inkscape-font-specification:'Times New Roman';letter-spacing:0px;word-spacing:0px;fill:#000000;fill-opacity:1;stroke:none;stroke-width:1px;stroke-linecap:butt;stroke-linejoin:miter;stroke-opacity:1"
         xml:space="preserve"><tspan
           y="-55.369629"
           x="-4.9089136"
           id="tspan8301"
           sodipodi:role="line">Substation</tspan></text>
<text
         transform="scale(1,-1)"
         sodipodi:linespacing="110%"
         id="text8303"
         y="-40.534031"
         x="313.72513"
         style="font-style:normal;font-weight:normal;font-size:9.60000038px;line-height:110.00000238%;font-family:'Times New Roman';-inkscape-font-specification:'Times New Roman';letter-spacing:0px;word-spacing:0px;fill:#000000;fill-opacity:1;stroke:none;stroke-width:1px;stroke-linecap:butt;stroke-linejoin:miter;stroke-opacity:1"
         xml:space="preserve"><tspan
           style="font-style:normal;font-variant:normal;font-weight:normal;font-stretch:normal;font-size:9.60000038px;line-height:110.00000238%;font-family:'Times New Roman';-inkscape-font-specification:'Times New Roman, Normal';text-align:start;writing-mode:lr-tb;text-anchor:start"
           id="tspan8311"
           y="-40.534031"
           x="313.72513"
           sodipodi:role="line">Unbalanced</tspan><tspan
           style="font-style:normal;font-variant:normal;font-weight:normal;font-stretch:normal;font-size:9.60000038px;line-height:110.00000238%;font-family:'Times New Roman';-inkscape-font-specification:'Times New Roman, Normal';text-align:start;writing-mode:lr-tb;text-anchor:start"
           id="tspan8315"
           y="-29.97403"
           x="313.72513"
           sodipodi:role="line">load</tspan></text>
</g></g></svg>