<?xml version="1.0" encoding="UTF-8" standalone="no"?>
<!-- Created with Inkscape (http://www.inkscape.org/) -->

<svg
   xmlns:dc="http://purl.org/dc/elements/1.1/"
   xmlns:cc="http://creativecommons.org/ns#"
   xmlns:rdf="http://www.w3.org/1999/02/22-rdf-syntax-ns#"
   xmlns:svg="http://www.w3.org/2000/svg"
   xmlns="http://www.w3.org/2000/svg"
   xmlns:sodipodi="http://sodipodi.sourceforge.net/DTD/sodipodi-0.dtd"
   xmlns:inkscape="http://www.inkscape.org/namespaces/inkscape"
   id="svg633"
   version="1.1"
   inkscape:version="0.48.4 r9939"
   width="319.75"
   height="147.06"
   xml:space="preserve"
   sodipodi:docname="recloser_duke_ex.svg"><metadata
     id="metadata639"><rdf:RDF><cc:Work
         rdf:about=""><dc:format>image/svg+xml</dc:format><dc:type
           rdf:resource="http://purl.org/dc/dcmitype/StillImage" /><dc:title></dc:title></cc:Work></rdf:RDF></metadata><defs
     id="defs637">




</defs><sodipodi:namedview
     pagecolor="#ffffff"
     bordercolor="#666666"
     borderopacity="1"
     objecttolerance="10"
     gridtolerance="10"
     guidetolerance="10"
     inkscape:pageopacity="0"
     inkscape:pageshadow="2"
     inkscape:window-width="1920"
     inkscape:window-height="1056"
     id="namedview635"
     showgrid="false"
     inkscape:zoom="4.0570687"
     inkscape:cx="181.07904"
     inkscape:cy="55.526487"
     inkscape:window-x="-5"
     inkscape:window-y="-5"
     inkscape:window-maximized="1"
     inkscape:current-layer="g641"
     fit-margin-top="0"
     fit-margin-left="0"
     fit-margin-right="0"
     fit-margin-bottom="2.1" /><g
     id="g641"
     inkscape:groupmode="layer"
     inkscape:label="ink_ext_XXXXXX"
     transform="matrix(1.25,0,0,-1.25,-0.25,207.07071)"><path
       inkscape:connector-curvature="0"
       id="path645"
       style="fill:none;stroke:#000000;stroke-width:0.40000001;stroke-linecap:butt;stroke-linejoin:miter;stroke-miterlimit:10;stroke-opacity:1;stroke-dasharray:none"
       d="m 3.9493606,123.0929 16.0000054,0 0,16 -16.0000054,0 0,-16 z" /><path
       inkscape:connector-curvature="0"
       id="path647"
       style="fill:none;stroke:#d40000;stroke-width:0.40000001;stroke-linecap:butt;stroke-linejoin:miter;stroke-miterlimit:10;stroke-opacity:1;stroke-dasharray:none"
       d="m 107.94942,131.0929 c 0,4.418 -3.582,8 -8.000057,8 -4.417997,0 -7.999997,-3.582 -7.999997,-8 0,-4.418 3.582,-8 7.999997,-8 4.418057,0 8.000057,3.582 8.000057,8 z" /><path
       inkscape:connector-curvature="0"
       id="path649"
       style="fill:none;stroke:#000000;stroke-width:0.80000001;stroke-linecap:butt;stroke-linejoin:miter;stroke-miterlimit:10;stroke-opacity:1;stroke-dasharray:none"
       d="m 19.949366,131.0929 72,0" /><path
       inkscape:connector-curvature="0"
       id="path651"
       style="fill:none;stroke:#000000;stroke-width:0.80000001;stroke-linecap:butt;stroke-linejoin:miter;stroke-miterlimit:10;stroke-opacity:1;stroke-dasharray:none"
       d="m 107.94942,131.0929 64,0 -12,0" /><text
       transform="scale(1,-1)"
       style="font-size:9.9630003px;font-variant:normal;font-weight:normal;writing-mode:lr-tb;fill:#000000;fill-opacity:1;fill-rule:nonzero;stroke:none;font-family:Times New Roman;-inkscape-font-specification:Times-Roman"
       id="text655"
       x="23.949373"
       y="-116.2979"><tspan
         x="111.94942 116.93092 121.91242 129.38457 133.80814 138.78964 142.66525 145.43495 150.41646 158.16766 162.59125 165.90892"
         y="-116.29868"
         sodipodi:role="line"
         id="tspan659">500customers</tspan><tspan
         x="111.94942 119.42169 127.17289 129.9426 132.71231"
         y="-104.34278"
         sodipodi:role="line"
         id="tspan661">1mile</tspan><tspan
         x="116.88537 122.2752 126.69877 131.68027 134.44998 139.71034 143.02803 147.4516 150.22131 157.13574 165.24551 170.22702 172.71776 180.19005 183.40802 187.83159 192.8131 195.58281 198.35252 202.22812 204.99783 212.74905 215.51877 218.28848 222.70216 225.47188 230.45338 234.87695 239.30052"
         y="-156.71468"
         sodipodi:role="line"
         id="tspan663">Faultrate=0.2faults/mile/year</tspan></text>
<text
       transform="scale(1,-1)"
       style="font-size:11.95499992px;font-variant:normal;font-weight:normal;writing-mode:lr-tb;fill:#000000;fill-opacity:1;fill-rule:nonzero;stroke:none;font-family:Times New Roman;-inkscape-font-specification:Times-Roman"
       id="text665"
       x="95.633347"
       y="-127.09988"><tspan
         x="95.633347 175.96222"
         y="-127.09988"
         sodipodi:role="line"
         id="tspan667">AB</tspan></text>
<text
       transform="scale(1,-1)"
       style="font-size:8.9659996px;font-variant:normal;font-weight:normal;writing-mode:lr-tb;fill:#000000;fill-opacity:1;fill-rule:nonzero;stroke:none;font-family:Times New Roman;-inkscape-font-specification:Times-Roman"
       id="text685"
       x="3.9493005"
       y="-147.21727"><tspan
         x="3.9493005 8.9343929 13.417391 17.9004 20.886087 24.866993"
         y="-147.21727"
         sodipodi:role="line"
         id="tspan687">Source</tspan></text>
<path
       inkscape:connector-curvature="0"
       id="path689"
       style="color:#000000;fill:none;stroke:#d40000;stroke-width:0.40000001;stroke-linecap:butt;stroke-linejoin:miter;stroke-miterlimit:10;stroke-opacity:1;stroke-dasharray:none;stroke-dashoffset:0;marker:none;visibility:visible;display:inline;overflow:visible;enable-background:accumulate"
       d="m 187.94942,131.0929 c 0,4.418 -3.582,8 -8,8 -4.418,0 -8,-3.582 -8,-8 0,-4.418 3.582,-8 8,-8 4.418,0 8,3.582 8,8 z" /><path
       inkscape:connector-curvature="0"
       id="path691"
       style="fill:none;stroke:#000000;stroke-width:0.80000001;stroke-linecap:butt;stroke-linejoin:miter;stroke-miterlimit:10;stroke-opacity:1;stroke-dasharray:none"
       d="m 187.94942,131.0929 64,0 -12,0" /><text
       transform="scale(1,-1)"
       style="font-size:9.9630003px;font-variant:normal;font-weight:normal;writing-mode:lr-tb;fill:#000000;fill-opacity:1;fill-rule:nonzero;stroke:none;font-family:Times New Roman;-inkscape-font-specification:Times-Roman"
       id="text695"
       x="191.9494"
       y="-116.2989"><tspan
         x="191.9494 196.93091 201.91241 209.38457 213.80814 218.78964 222.66525 225.43497 230.41646 238.16768 242.59125 245.90892"
         y="-116.2989"
         sodipodi:role="line"
         id="tspan697">500customers</tspan><tspan
         x="191.9494 199.42168 207.1729 209.94261 212.71233 217.13589"
         y="-104.343"
         sodipodi:role="line"
         id="tspan699">3miles</tspan></text>
<path
       d="m 83.949366,101.67883 c 0,4.41802 -3.582,8.00002 -8,8.00002 -4.418,0 -8,-3.582 -8,-8.00002 0,-4.418025 3.582,-8.000025 8,-8.000025 4.418,0 8,3.582 8,8.000025 z"
       style="fill:none;stroke:#d40000;stroke-width:0.40000001;stroke-linecap:butt;stroke-linejoin:miter;stroke-miterlimit:10;stroke-opacity:1;stroke-dasharray:none"
       id="path3030"
       inkscape:connector-curvature="0" /><text
       y="-97.865257"
       x="71.814384"
       id="text3032"
       style="font-size:11.95499992px;font-variant:normal;font-weight:normal;writing-mode:lr-tb;fill:#000000;fill-opacity:1;fill-rule:nonzero;stroke:none;font-family:Times New Roman;-inkscape-font-specification:Times-Roman"
       transform="scale(1,-1)"><tspan
         id="tspan3034"
         sodipodi:role="line"
         y="-97.865257"
         x="71.814384">C</tspan></text>
<path
       d="m 75.748718,131.45646 0,-21.78107"
       style="fill:none;stroke:#000000;stroke-width:0.80000001;stroke-linecap:butt;stroke-linejoin:miter;stroke-miterlimit:10;stroke-opacity:1;stroke-dasharray:none"
       id="path3036"
       inkscape:connector-curvature="0" /><path
       inkscape:connector-curvature="0"
       id="path3038"
       style="fill:none;stroke:#000000;stroke-width:0.80000001;stroke-linecap:butt;stroke-linejoin:miter;stroke-miterlimit:10;stroke-opacity:1;stroke-dasharray:none"
       d="m 75.748718,93.596583 0,-21.78107" /><path
       d="m 75.971872,72.112562 64.000058,0 -12,0"
       style="fill:none;stroke:#000000;stroke-width:0.80000001;stroke-linecap:butt;stroke-linejoin:miter;stroke-miterlimit:10;stroke-opacity:1;stroke-dasharray:none"
       id="path3040"
       inkscape:connector-curvature="0" /><text
       y="-62.072517"
       x="84.679832"
       id="text3042"
       style="font-size:9.9630003px;font-variant:normal;font-weight:normal;writing-mode:lr-tb;fill:#000000;fill-opacity:1;fill-rule:nonzero;stroke:none;font-family:Times New Roman;-inkscape-font-specification:Times-Roman"
       transform="scale(1,-1)"><tspan
         id="tspan3044"
         sodipodi:role="line"
         y="-62.072517"
         x="84.679832 89.661339 94.642845 102.115 106.53858 111.52008 115.3957 118.16541 123.1469 130.8981 135.32169 138.63936">500customers</tspan><tspan
         id="tspan3046"
         sodipodi:role="line"
         y="-50.116615"
         x="84.679832 92.152107 99.903328 102.67305 105.44277 109.86634">3miles</tspan></text>
<text
       transform="scale(1,-1)"
       style="font-size:9.9630003px;font-variant:normal;font-weight:normal;writing-mode:lr-tb;fill:#000000;fill-opacity:1;fill-rule:nonzero;stroke:none;font-family:Times New Roman;-inkscape-font-specification:Times-Roman"
       id="text3048"
       x="20.791307"
       y="-117.67921"><tspan
         sodipodi:role="line"
         id="tspan3050"
         x="20.791307"
         y="-117.67921">50 customers</tspan><tspan
         sodipodi:role="line"
         id="tspan3052"
         x="20.791307"
         y="-105.22546">1 mile</tspan></text>
</g></svg>