<?xml version="1.0" encoding="UTF-8" standalone="no"?>
<!-- Created with Inkscape (http://www.inkscape.org/) -->

<svg
   xmlns:dc="http://purl.org/dc/elements/1.1/"
   xmlns:cc="http://creativecommons.org/ns#"
   xmlns:rdf="http://www.w3.org/1999/02/22-rdf-syntax-ns#"
   xmlns:svg="http://www.w3.org/2000/svg"
   xmlns="http://www.w3.org/2000/svg"
   xmlns:sodipodi="http://sodipodi.sourceforge.net/DTD/sodipodi-0.dtd"
   xmlns:inkscape="http://www.inkscape.org/namespaces/inkscape"
   id="svg2985"
   version="1.1"
   inkscape:version="0.48.4 r9939"
   width="226.89177"
   height="106.89189"
   xml:space="preserve"
   sodipodi:docname="recloser_loop.svg"><metadata
     id="metadata2991"><rdf:RDF><cc:Work
         rdf:about=""><dc:format>image/svg+xml</dc:format><dc:type
           rdf:resource="http://purl.org/dc/dcmitype/StillImage" /><dc:title></dc:title></cc:Work></rdf:RDF></metadata><defs
     id="defs2989" /><sodipodi:namedview
     pagecolor="#ffffff"
     bordercolor="#666666"
     borderopacity="1"
     objecttolerance="10"
     gridtolerance="10"
     guidetolerance="10"
     inkscape:pageopacity="0"
     inkscape:pageshadow="2"
     inkscape:window-width="1920"
     inkscape:window-height="1056"
     id="namedview2987"
     showgrid="false"
     inkscape:zoom="5.4875"
     inkscape:cx="158.55008"
     inkscape:cy="59.850295"
     inkscape:window-x="-5"
     inkscape:window-y="-5"
     inkscape:window-maximized="1"
     inkscape:current-layer="g2993"
     fit-margin-top="0"
     fit-margin-left="0"
     fit-margin-right="0"
     fit-margin-bottom="0" /><g
     id="g2993"
     inkscape:groupmode="layer"
     inkscape:label="ink_ext_XXXXXX"
     transform="matrix(1.25,0,0,-1.25,-1.4499187,108.70589)"><path
       inkscape:connector-curvature="0"
       id="path2997"
       style="fill:#ffffff;fill-opacity:1;fill-rule:nonzero;stroke:none"
       d="m 10.1656,73.9566 8.00469,0 0,8.00469 -8.00469,0 0,-8.00469 z" /><path
       inkscape:connector-curvature="0"
       id="path2999"
       style="fill:none;stroke:#000000;stroke-width:0.50030696;stroke-linecap:butt;stroke-linejoin:miter;stroke-miterlimit:10;stroke-opacity:1;stroke-dasharray:none"
       d="m 10.1656,73.9566 8.00469,0 0,8.00469 -8.00469,0 0,-8.00469 z" /><path
       inkscape:connector-curvature="0"
       id="path3001"
       style="fill:#ffffff;fill-opacity:1;fill-rule:nonzero;stroke:none"
       d="m 10.1656,9.91719 8.00469,0 0,8.00508 -8.00469,0 0,-8.00508 z" /><path
       inkscape:connector-curvature="0"
       id="path3003"
       style="fill:none;stroke:#000000;stroke-width:0.50030696;stroke-linecap:butt;stroke-linejoin:miter;stroke-miterlimit:10;stroke-opacity:1;stroke-dasharray:none"
       d="m 10.1656,9.91719 8.00469,0 0,8.00508 -8.00469,0 0,-8.00508 z" /><path
       inkscape:connector-curvature="0"
       id="path3005"
       style="fill:none;stroke:#000000;stroke-width:1.00060999;stroke-linecap:butt;stroke-linejoin:miter;stroke-miterlimit:10;stroke-opacity:1;stroke-dasharray:none"
       d="m 10.1656,13.9195 -8.00505,0 0,32.02" /><path
       inkscape:connector-curvature="0"
       id="path3007"
       style="fill:none;stroke:#000000;stroke-width:2.00123;stroke-linecap:butt;stroke-linejoin:miter;stroke-miterlimit:10;stroke-opacity:1;stroke-dasharray:none"
       d="m 2.16055,5.91484 0,80.04926" /><path
       inkscape:connector-curvature="0"
       id="path3009"
       style="fill:#ffffff;fill-opacity:1;fill-rule:nonzero;stroke:none"
       d="m 142.286,45.9395 c 0,-2.2102 -1.793,-4.0028 -4.003,-4.0028 -2.21,0 -4.002,1.7926 -4.002,4.0028 0,2.2101 1.792,4.0023 4.002,4.0023 2.21,0 4.003,-1.7922 4.003,-4.0023" /><path
       inkscape:connector-curvature="0"
       id="path3011"
       style="fill:none;stroke:#000000;stroke-width:0.50030696;stroke-linecap:butt;stroke-linejoin:miter;stroke-miterlimit:10;stroke-opacity:1;stroke-dasharray:none"
       d="m 142.286,45.9395 c 0,-2.2102 -1.793,-4.0028 -4.003,-4.0028 -2.21,0 -4.002,1.7926 -4.002,4.0028 0,2.2101 1.792,4.0023 4.002,4.0023 2.21,0 4.003,-1.7922 4.003,-4.0023 z" /><path
       inkscape:connector-curvature="0"
       id="path3023"
       style="fill:none;stroke:#000000;stroke-width:1.00060999;stroke-linecap:butt;stroke-linejoin:miter;stroke-miterlimit:10;stroke-opacity:1;stroke-dasharray:none"
       d="m 10.1656,77.959 -8.00505,0 0,-32.0195" /><path
       inkscape:connector-curvature="0"
       id="path3025"
       style="fill:#ffffff;fill-opacity:1;fill-rule:nonzero;stroke:none"
       d="m 82.2098,13.9195 c 0,-2.2101 -1.7922,-4.00231 -4.0024,-4.00231 -2.2101,0 -4.0027,1.79221 -4.0027,4.00231 0,2.2102 1.7926,4.0028 4.0027,4.0028 2.2102,0 4.0024,-1.7926 4.0024,-4.0028" /><path
       inkscape:connector-curvature="0"
       id="path3027"
       style="fill:none;stroke:#000000;stroke-width:0.50030696;stroke-linecap:butt;stroke-linejoin:miter;stroke-miterlimit:10;stroke-opacity:1;stroke-dasharray:none"
       d="m 82.2098,13.9195 c 0,-2.2101 -1.7922,-4.00231 -4.0024,-4.00231 -2.2101,0 -4.0027,1.79221 -4.0027,4.00231 0,2.2102 1.7926,4.0028 4.0027,4.0028 2.2102,0 4.0024,-1.7926 4.0024,-4.0028 z" /><path
       inkscape:connector-curvature="0"
       id="path3029"
       style="fill:none;stroke:#000000;stroke-width:1.00060999;stroke-linecap:butt;stroke-linejoin:miter;stroke-miterlimit:10;stroke-opacity:1;stroke-dasharray:none"
       d="m 74.2047,13.9195 -56.0344,0 0,0" /><g
       id="g3031"><text
         id="text3033"
         transform="matrix(1,0,0,-1,10.1656,65.4512)"><tspan
           id="tspan3035"
           sodipodi:role="line"
           y="0"
           x="0 4.6718683"
           style="font-size:7.00430012px;font-variant:normal;font-weight:normal;writing-mode:lr-tb;fill:#000000;fill-opacity:1;fill-rule:nonzero;stroke:none;font-family:Times New Roman;-inkscape-font-specification:Times-Roman">B1</tspan></text>
</g><path
       inkscape:connector-curvature="0"
       id="path3043"
       style="fill:none;stroke:#000000;stroke-width:1.00060999;stroke-linecap:butt;stroke-linejoin:miter;stroke-miterlimit:10;stroke-opacity:1;stroke-dasharray:none"
       d="m 82.249,13.9195 56.034,0 0,28.0172" /><text
       y="-47.629421"
       x="144.70764"
       id="text3123"
       transform="scale(1,-1)"><tspan
         id="tspan3125"
         sodipodi:role="line"
         y="-47.629421"
         x="144.70764 149.25903 152.41096 154.51015 159.41457 162.21349 163.96596 165.71843 168.87036 170.44633 173.59827 176.75021 179.54912"
         style="font-size:6.3038702px;font-variant:normal;font-weight:normal;writing-mode:lr-tb;fill:#0000d4;fill-opacity:1;fill-rule:nonzero;stroke:none;font-family:Times New Roman;-inkscape-font-specification:Times-Roman">Normally open</tspan><tspan
         y="0"
         x="144.70764"
         id="tspan3127"
         sodipodi:role="line"
         style="font-size:6.3038702px;font-variant:normal;font-weight:normal;writing-mode:lr-tb;fill:#0000d4;fill-opacity:1;fill-rule:nonzero;stroke:none;font-family:Times New Roman;-inkscape-font-specification:Times-Roman">tie switch</tspan></text>
<path
       inkscape:connector-curvature="0"
       id="path3061"
       style="fill:#ffffff;fill-opacity:1;fill-rule:nonzero;stroke:none"
       d="m 82.2098,77.959 c 0,-2.2102 -1.7922,-4.0024 -4.0024,-4.0024 -2.2101,0 -4.0027,1.7922 -4.0027,4.0024 0,2.2101 1.7926,4.0023 4.0027,4.0023 2.2102,0 4.0024,-1.7922 4.0024,-4.0023" /><path
       inkscape:connector-curvature="0"
       id="path3063"
       style="fill:none;stroke:#000000;stroke-width:0.50030696;stroke-linecap:butt;stroke-linejoin:miter;stroke-miterlimit:10;stroke-opacity:1;stroke-dasharray:none"
       d="m 82.2098,77.959 c 0,-2.2102 -1.7922,-4.0024 -4.0024,-4.0024 -2.2101,0 -4.0027,1.7922 -4.0027,4.0024 0,2.2101 1.7926,4.0023 4.0027,4.0023 2.2102,0 4.0024,-1.7922 4.0024,-4.0023 z" /><path
       inkscape:connector-curvature="0"
       id="path3065"
       style="fill:none;stroke:#000000;stroke-width:1.00060999;stroke-linecap:butt;stroke-linejoin:miter;stroke-miterlimit:10;stroke-opacity:1;stroke-dasharray:none"
       d="m 74.2047,77.959 -56.0344,0 0,0" /><path
       inkscape:connector-curvature="0"
       id="path3073"
       style="fill:none;stroke:#000000;stroke-width:1.00060999;stroke-linecap:butt;stroke-linejoin:miter;stroke-miterlimit:10;stroke-opacity:1;stroke-dasharray:none"
       d="m 82.249,77.959 56.034,0 0,-28.0172" /><g
       id="g3075"><text
         id="text3077"
         transform="matrix(1,0,0,-1,74.2047,65.4512)"><tspan
           id="tspan3079"
           sodipodi:role="line"
           y="0"
           x="0 4.6718683"
           style="font-size:7.00430012px;font-variant:normal;font-weight:normal;writing-mode:lr-tb;fill:#000000;fill-opacity:1;fill-rule:nonzero;stroke:none;font-family:Times New Roman;-inkscape-font-specification:Times-Roman">R1</tspan></text>
</g><g
       id="g3135"
       transform="translate(0,-64)"><text
         transform="matrix(1,0,0,-1,10.1656,65.4512)"
         id="text3137"><tspan
           style="font-size:7.00430012px;font-variant:normal;font-weight:normal;writing-mode:lr-tb;fill:#000000;fill-opacity:1;fill-rule:nonzero;stroke:none;font-family:Times New Roman;-inkscape-font-specification:Times-Roman"
           x="0"
           y="0"
           sodipodi:role="line"
           id="tspan3139">B2</tspan></text>
</g><g
       id="g3141"
       transform="translate(0,-64)"><text
         transform="matrix(1,0,0,-1,74.2047,65.4512)"
         id="text3143"><tspan
           style="font-size:7.00430012px;font-variant:normal;font-weight:normal;writing-mode:lr-tb;fill:#000000;fill-opacity:1;fill-rule:nonzero;stroke:none;font-family:Times New Roman;-inkscape-font-specification:Times-Roman"
           x="0"
           y="0"
           sodipodi:role="line"
           id="tspan3145">R2</tspan></text>
</g><text
       transform="scale(1,-1)"
       id="text3205"
       x="113.44907"
       y="-67.747871"
       style="text-align:center;text-anchor:middle"><tspan
         style="font-size:6.3038702px;font-variant:normal;font-weight:normal;text-align:center;writing-mode:lr-tb;text-anchor:middle;fill:#0000d4;fill-opacity:1;fill-rule:nonzero;stroke:none;font-family:Times New Roman;-inkscape-font-specification:Times-Roman"
         sodipodi:role="line"
         id="tspan3209"
         x="113.44907"
         y="-67.747871">Section B</tspan><tspan
         style="font-size:6.3038702px;font-variant:normal;font-weight:normal;text-align:center;writing-mode:lr-tb;text-anchor:middle;fill:#0000d4;fill-opacity:1;fill-rule:nonzero;stroke:none;font-family:Times New Roman;-inkscape-font-specification:Times-Roman"
         sodipodi:role="line"
         x="113.44907"
         y="-59.868034"
         id="tspan3219">3 miles</tspan></text>
<text
       y="-67.456299"
       x="48.73946"
       id="text3213"
       transform="scale(1,-1)"
       style="text-align:center;text-anchor:middle"><tspan
         y="-67.456299"
         x="48.73946"
         id="tspan3215"
         sodipodi:role="line"
         style="font-size:6.3038702px;font-variant:normal;font-weight:normal;text-align:center;writing-mode:lr-tb;text-anchor:middle;fill:#0000d4;fill-opacity:1;fill-rule:nonzero;stroke:none;font-family:Times New Roman;-inkscape-font-specification:Times-Roman">Section A</tspan><tspan
         y="-59.576462"
         x="48.73946"
         sodipodi:role="line"
         style="font-size:6.3038702px;font-variant:normal;font-weight:normal;text-align:center;writing-mode:lr-tb;text-anchor:middle;fill:#0000d4;fill-opacity:1;fill-rule:nonzero;stroke:none;font-family:Times New Roman;-inkscape-font-specification:Times-Roman"
         id="tspan3217">3 miles</tspan></text>
</g></svg>